<svg width="17" height="17" viewBox="0 0 17 17" fill="none" xmlns="http://www.w3.org/2000/svg">
<path d="M0.5 8.5C0.5 4.08172 4.08172 0.5 8.5 0.5C12.9183 0.5 16.5 4.08172 16.5 8.5C16.5 12.9183 12.9183 16.5 8.5 16.5C4.08172 16.5 0.5 12.9183 0.5 8.5Z" stroke="#5B6262"/>
<path d="M8.88645 11.084C8.50845 11.084 8.15612 11.0233 7.82945 10.902C7.50745 10.776 7.22745 10.5987 6.98945 10.37C6.75145 10.1413 6.56478 9.873 6.42945 9.565C6.29878 9.257 6.23345 8.91867 6.23345 8.55C6.23345 8.18133 6.29878 7.843 6.42945 7.535C6.56478 7.227 6.75145 6.95867 6.98945 6.73C7.23212 6.50133 7.51445 6.32633 7.83645 6.205C8.15845 6.079 8.51078 6.016 8.89345 6.016C9.31812 6.016 9.70078 6.09067 10.0414 6.24C10.3868 6.38467 10.6761 6.59933 10.9094 6.884L10.1814 7.556C10.0134 7.36467 9.82678 7.22233 9.62145 7.129C9.41612 7.031 9.19212 6.982 8.94945 6.982C8.72078 6.982 8.51078 7.01933 8.31945 7.094C8.12812 7.16867 7.96245 7.276 7.82245 7.416C7.68245 7.556 7.57278 7.72167 7.49345 7.913C7.41878 8.10433 7.38145 8.31667 7.38145 8.55C7.38145 8.78333 7.41878 8.99567 7.49345 9.187C7.57278 9.37833 7.68245 9.544 7.82245 9.684C7.96245 9.824 8.12812 9.93133 8.31945 10.006C8.51078 10.0807 8.72078 10.118 8.94945 10.118C9.19212 10.118 9.41612 10.0713 9.62145 9.978C9.82678 9.88 10.0134 9.733 10.1814 9.537L10.9094 10.209C10.6761 10.4937 10.3868 10.7107 10.0414 10.86C9.70078 11.0093 9.31578 11.084 8.88645 11.084Z" fill="#5B6262"/>
</svg>
