<svg width="18" height="19" viewBox="0 0 18 19" fill="none" xmlns="http://www.w3.org/2000/svg">
<path d="M3.62 8.35452C5.06 11.086 7.38 13.3155 10.21 14.715L12.41 12.5916C12.68 12.331 13.08 12.2442 13.43 12.36C14.55 12.7171 15.76 12.9101 17 12.9101C17.55 12.9101 18 13.3445 18 13.8753V17.2438C18 17.7746 17.55 18.209 17 18.209C7.61 18.209 0 10.864 0 1.80099C0 1.27014 0.45 0.835815 1 0.835815H4.5C5.05 0.835815 5.5 1.27014 5.5 1.80099C5.5 3.00746 5.7 4.16567 6.07 5.24666C6.18 5.58447 6.1 5.96089 5.82 6.23114L3.62 8.35452Z" fill="#006C84"/>
</svg>
