<svg width="21" height="29" viewBox="0 0 21 29" fill="none" xmlns="http://www.w3.org/2000/svg">
<path d="M10.4999 2.05701C8.25587 2.05701 6.10376 2.95033 4.51701 4.54045C2.93025 6.13056 2.03882 8.28723 2.03882 10.536C2.03882 17.1718 8.49844 25.1569 10.1912 27.1186C10.282 27.223 10.4104 27.287 10.5483 27.2967C10.6862 27.3064 10.8223 27.261 10.9268 27.1704L10.9784 27.1186C12.6486 25.1492 18.9603 17.1718 18.9603 10.5353C18.9601 8.2868 18.0687 6.13041 16.4821 4.54045C14.8955 2.95049 12.7437 2.05718 10.4999 2.05701ZM10.4999 12.8368C9.93236 12.8368 9.37758 12.6682 8.90571 12.3522C8.43383 12.0362 8.06605 11.5871 7.84887 11.0617C7.63168 10.5363 7.57486 9.95809 7.68558 9.40029C7.7963 8.8425 8.06958 8.33013 8.47088 7.92798C8.87218 7.52583 9.38346 7.25197 9.94008 7.14102C10.4967 7.03006 11.0736 7.08701 11.598 7.30465C12.1223 7.52229 12.5704 7.89085 12.8857 8.36373C13.201 8.8366 13.3693 9.39256 13.3693 9.96128V9.9684C13.3674 10.7298 13.0643 11.4594 12.5264 11.9971C11.9885 12.5348 11.2597 12.8368 10.4999 12.8368Z" stroke="#006C84" stroke-width="3" stroke-linecap="round" stroke-linejoin="round"/>
</svg>
